<svg width="332" height="85" viewBox="0 0 332 85" fill="none" xmlns="http://www.w3.org/2000/svg">
<path d="M164.788 20.2V65H162.1L131.572 26.088V65H128.308V20.2H131.06L161.524 59.112V20.2H164.788ZM211.345 62.056V65H180.433V20.2H210.385V23.144H183.697V40.808H207.569V43.688H183.697V62.056H211.345ZM282.525 20.2L267.357 65H263.901L250.013 24.808L236.061 65H232.605L217.373 20.2H220.829L234.461 60.52L248.477 20.2H251.613L265.565 60.584L279.325 20.2H282.525ZM303.709 65.32C300.424 65.32 297.288 64.7653 294.301 63.656C291.357 62.504 289.053 61.032 287.389 59.24L288.861 56.808C290.44 58.472 292.552 59.8373 295.197 60.904C297.885 61.928 300.701 62.44 303.645 62.44C307.912 62.44 311.133 61.6293 313.309 60.008C315.485 58.3867 316.573 56.2747 316.573 53.672C316.573 51.6667 315.997 50.0667 314.845 48.872C313.693 47.6773 312.264 46.76 310.557 46.12C308.85 45.48 306.546 44.8187 303.645 44.136C300.36 43.3253 297.714 42.536 295.709 41.768C293.746 41 292.061 39.8267 290.653 38.248C289.288 36.6267 288.605 34.472 288.605 31.784C288.605 29.608 289.181 27.624 290.333 25.832C291.485 23.9973 293.234 22.5467 295.581 21.48C297.97 20.4133 300.936 19.88 304.477 19.88C306.952 19.88 309.384 20.2427 311.773 20.968C314.162 21.6933 316.232 22.6747 317.981 23.912L316.765 26.536C314.973 25.2987 312.989 24.36 310.813 23.72C308.68 23.08 306.568 22.76 304.477 22.76C300.338 22.76 297.202 23.592 295.069 25.256C292.936 26.92 291.869 29.0747 291.869 31.72C291.869 33.7253 292.445 35.3253 293.597 36.52C294.749 37.7147 296.178 38.632 297.885 39.272C299.592 39.912 301.917 40.5947 304.861 41.32C308.146 42.1307 310.77 42.92 312.733 43.688C314.696 44.456 316.36 45.6293 317.725 47.208C319.133 48.744 319.837 50.8347 319.837 53.48C319.837 55.656 319.24 57.64 318.045 59.432C316.893 61.224 315.101 62.6533 312.669 63.72C310.237 64.7867 307.25 65.32 303.709 65.32Z" fill="black"/>
<path d="M18.5 62.5L9 13L34 38.5L48.5 15.5L63.5 38.5L88.5 12L78.5 62.5V72H18.5V62.5ZM18.5 62.5H59.5" stroke="black" stroke-width="2" stroke-linecap="round" stroke-linejoin="round"/>
</svg>
